<svg data-v-423bf9ae="" xmlns="http://www.w3.org/2000/svg" viewBox="0 0 437 90" class="iconLeftSlogan"><!----><!----><!----><g data-v-423bf9ae="" id="8fd772f7-9135-48a8-81c6-23e10e3dbbe0" fill="black" transform="matrix(4.735595867300924,0,0,4.735595867300924,105.02761894664792,-10.276242439665985)"><path d="M1.05 12.29L1.05 2.69L2.60 2.69L2.60 6.71L7.50 6.71L7.50 2.69L9.06 2.69L9.06 12.29L7.50 12.29L7.50 8.05L2.60 8.05L2.60 12.29L1.05 12.29ZM12.96 12.46L12.96 12.46Q12.05 12.46 11.32 12.01L11.32 12.01L11.32 12.01Q10.58 11.56 10.58 10.39L10.58 10.39L10.58 10.39Q10.58 8.97 11.82 8.43L11.82 8.43L11.82 8.43Q13.05 7.88 15.34 7.88L15.34 7.88L15.34 7.15L15.34 7.15Q15.34 6.55 15.03 6.24L15.03 6.24L15.03 6.24Q14.71 5.92 13.86 5.92L13.86 5.92L13.86 5.92Q13.03 5.92 12.69 6.22L12.69 6.22L12.69 6.22Q12.35 6.51 12.35 6.93L12.35 6.93L12.35 7.11L10.95 7.11L10.95 7.11Q10.93 7.03 10.93 6.80L10.93 6.80L10.93 6.80Q10.93 5.84 11.75 5.30L11.75 5.30L11.75 5.30Q12.56 4.76 13.92 4.76L13.92 4.76L13.92 4.76Q15.34 4.76 16.07 5.35L16.07 5.35L16.07 5.35Q16.79 5.94 16.79 7.01L16.79 7.01L16.79 10.78L16.79 10.78Q16.79 11.03 16.93 11.15L16.93 11.15L16.93 11.15Q17.07 11.27 17.28 11.27L17.28 11.27L17.78 11.27L17.78 12.24L17.78 12.24Q17.42 12.42 16.79 12.42L16.79 12.42L16.79 12.42Q16.28 12.42 15.94 12.14L15.94 12.14L15.94 12.14Q15.60 11.87 15.48 11.40L15.48 11.40L15.39 11.40L15.39 11.40Q14.99 11.90 14.39 12.18L14.39 12.18L14.39 12.18Q13.78 12.46 12.96 12.46L12.96 12.46ZM13.38 11.28L13.38 11.28Q14.21 11.28 14.78 10.79L14.78 10.79L14.78 10.79Q15.34 10.29 15.34 9.42L15.34 9.42L15.34 8.97L15.34 8.97Q13.75 8.97 12.91 9.25L12.91 9.25L12.91 9.25Q12.07 9.52 12.07 10.28L12.07 10.28L12.07 10.28Q12.07 10.79 12.40 11.04L12.40 11.04L12.40 11.04Q12.73 11.28 13.38 11.28L13.38 11.28ZM20.61 12.45L20.61 12.45Q19.77 12.45 19.39 11.96L19.39 11.96L19.39 11.96Q19.01 11.48 19.01 10.77L19.01 10.77L19.01 6.12L18.12 6.12L18.12 4.93L19.03 4.93L19.31 2.87L20.45 2.87L20.45 4.93L21.70 4.93L21.70 6.12L20.45 6.12L20.45 10.63L20.45 10.63Q20.45 11.27 21.06 11.27L21.06 11.27L21.70 11.27L21.70 12.25L21.70 12.25Q21.52 12.33 21.20 12.39L21.20 12.39L21.20 12.39Q20.89 12.45 20.61 12.45L20.61 12.45ZM26.07 12.46L26.07 12.46Q24.29 12.46 23.42 11.52L23.42 11.52L23.42 11.52Q22.55 10.58 22.55 8.61L22.55 8.61L22.55 8.61Q22.55 6.64 23.42 5.70L23.42 5.70L23.42 5.70Q24.29 4.76 26.07 4.76L26.07 4.76L26.07 4.76Q27.68 4.76 28.48 5.63L28.48 5.63L28.48 5.63Q29.27 6.51 29.27 8.41L29.27 8.41L29.27 8.97L24.04 8.97L24.04 8.97Q24.09 10.16 24.58 10.73L24.58 10.73L24.58 10.73Q25.06 11.30 26.08 11.30L26.08 11.30L26.08 11.30Q26.88 11.30 27.37 10.92L27.37 10.92L27.37 10.92Q27.86 10.54 27.86 9.76L27.86 9.76L29.27 9.76L29.27 9.76Q29.27 11.07 28.38 11.77L28.38 11.77L28.38 11.77Q27.50 12.46 26.07 12.46L26.07 12.46ZM24.07 7.88L27.78 7.88L27.78 7.88Q27.78 5.92 26.07 5.92L26.07 5.92L26.07 5.92Q25.12 5.92 24.64 6.39L24.64 6.39L24.64 6.39Q24.16 6.86 24.07 7.88L24.07 7.88ZM31.58 14.84L31.58 14.84Q30.90 14.84 30.51 14.70L30.51 14.70L30.51 13.75L31.12 13.75L31.12 13.75Q32.40 13.75 32.83 12.29L32.83 12.29L29.97 4.93L31.49 4.93L32.86 8.54L32.86 8.54Q33.04 9.02 33.27 9.76L33.27 9.76L33.27 9.76Q33.50 10.50 33.57 10.74L33.57 10.74L33.64 10.74L33.64 10.74Q33.70 10.51 33.88 9.88L33.88 9.88L33.88 9.88Q34.06 9.24 34.29 8.54L34.29 8.54L35.43 4.93L36.88 4.93L34.44 11.91L34.44 11.91Q33.94 13.31 33.31 14.08L33.31 14.08L33.31 14.08Q32.68 14.84 31.58 14.84L31.58 14.84ZM38.09 12.29L38.09 2.69L39.65 2.69L39.65 7.78L44.53 2.69L46.42 2.69L42.74 6.55L46.54 12.29L44.70 12.29L41.69 7.64L39.65 9.49L39.65 12.29L38.09 12.29ZM47.57 12.29L47.57 2.17L49.01 2.17L49.01 5.77L49.11 5.77L49.11 5.77Q49.90 4.76 51.39 4.76L51.39 4.76L51.39 4.76Q53.73 4.76 53.73 7.29L53.73 7.29L53.73 12.29L52.29 12.29L52.29 7.48L52.29 7.48Q52.29 6.65 51.92 6.32L51.92 6.32L51.92 6.32Q51.55 5.99 50.83 5.99L50.83 5.99L50.83 5.99Q50.34 5.99 49.92 6.24L49.92 6.24L49.92 6.24Q49.50 6.48 49.26 6.93L49.26 6.93L49.26 6.93Q49.01 7.38 49.01 7.97L49.01 7.97L49.01 12.29L47.57 12.29ZM58.65 12.46L58.65 12.46Q56.90 12.46 56.02 11.52L56.02 11.52L56.02 11.52Q55.15 10.57 55.15 8.61L55.15 8.61L55.15 8.61Q55.15 6.65 56.02 5.71L56.02 5.71L56.02 5.71Q56.90 4.76 58.65 4.76L58.65 4.76L58.65 4.76Q60.40 4.76 61.28 5.71L61.28 5.71L61.28 5.71Q62.16 6.65 62.16 8.61L62.16 8.61L62.16 8.61Q62.16 10.57 61.28 11.52L61.28 11.52L61.28 11.52Q60.40 12.46 58.65 12.46L58.65 12.46ZM58.65 11.27L58.65 11.27Q59.71 11.27 60.19 10.65L60.19 10.65L60.19 10.65Q60.68 10.02 60.68 8.68L60.68 8.68L60.68 8.54L60.68 8.54Q60.68 7.20 60.19 6.57L60.19 6.57L60.19 6.57Q59.71 5.95 58.65 5.95L58.65 5.95L58.65 5.95Q57.60 5.95 57.11 6.57L57.11 6.57L57.11 6.57Q56.63 7.20 56.63 8.54L56.63 8.54L56.63 8.68L56.63 8.68Q56.63 10.02 57.11 10.65L57.11 10.65L57.11 10.65Q57.60 11.27 58.65 11.27L58.65 11.27ZM63.62 12.29L63.62 4.93L64.78 4.93L64.92 6.06L65.00 6.06L65.00 6.06Q65.51 4.76 66.70 4.76L66.70 4.76L66.70 4.76Q66.95 4.76 67.14 4.81L67.14 4.81L67.14 4.81Q67.33 4.86 67.38 4.87L67.38 4.87L67.38 6.24L66.86 6.24L66.86 6.24Q66.04 6.24 65.55 6.72L65.55 6.72L65.55 6.72Q65.06 7.20 65.06 8.18L65.06 8.18L65.06 12.29L63.62 12.29ZM68.52 3.65L68.52 2.17L69.96 2.17L69.96 3.65L68.52 3.65ZM68.52 12.29L68.52 4.93L69.96 4.93L69.96 12.29L68.52 12.29Z"></path></g><!----><g data-v-423bf9ae="" id="df91929d-a3e4-4b1a-869c-53cfaf9b13a3" transform="matrix(2.8125,0,0,2.8125,0,0)" stroke="none" fill="black"><path d="M0 16l16 16 16-16L16 0 0 16zm16 13.172L2.828 16 16 2.828 29.172 16 16 29.172z"></path><path d="M14.751 9.991v4.76h-2.262v-4.76H9.991v12.018h2.498v-4.76h2.262v4.76h2.498v-4.76h2.262v4.76h2.498V9.991h-2.498v4.76h-2.262v-4.76z"></path></g><!----><g data-v-423bf9ae="" id="bb34234e-4c95-4453-afba-2cd630f949f1" fill="black" transform="matrix(1.2487511575208405,0,0,1.2487511575208405,108.47651729300247,52.90709253291408)"><path d="M2.31 12.07L2.31 15.68L1.22 15.68L1.22 5.88L2.31 5.88L2.31 10.00L2.48 10.00L2.48 10.00Q2.80 9.32 3.38 8.93L3.38 8.93L3.38 8.93Q3.96 8.54 4.80 8.54L4.80 8.54L4.80 8.54Q5.94 8.54 6.64 9.29L6.64 9.29L6.64 9.29Q7.35 10.04 7.35 11.54L7.35 11.54L7.35 15.68L6.26 15.68L6.26 11.76L6.26 11.76Q6.26 10.67 5.77 10.12L5.77 10.12L5.77 10.12Q5.28 9.58 4.44 9.58L4.44 9.58L4.44 9.58Q3.44 9.58 2.88 10.25L2.88 10.25L2.88 10.25Q2.31 10.93 2.31 12.07L2.31 12.07ZM21.83 14.59L21.83 14.50L21.66 14.50L21.66 14.50Q21.32 15.20 20.73 15.54L20.73 15.54L20.73 15.54Q20.13 15.88 19.47 15.88L19.47 15.88L19.47 15.88Q18.79 15.88 18.20 15.64L18.20 15.64L18.20 15.64Q17.61 15.41 17.17 14.96L17.17 14.96L17.17 14.96Q16.73 14.50 16.48 13.85L16.48 13.85L16.48 13.85Q16.23 13.19 16.23 12.32L16.23 12.32L16.23 12.10L16.23 12.10Q16.23 11.24 16.48 10.58L16.48 10.58L16.48 10.58Q16.73 9.93 17.17 9.47L17.17 9.47L17.17 9.47Q17.61 9.02 18.20 8.78L18.20 8.78L18.20 8.78Q18.79 8.54 19.45 8.54L19.45 8.54L19.45 8.54Q20.16 8.54 20.74 8.86L20.74 8.86L20.74 8.86Q21.32 9.17 21.66 9.83L21.66 9.83L21.83 9.83L21.83 8.74L22.92 8.74L22.92 14.25L22.92 14.25Q22.92 14.67 23.30 14.67L23.30 14.67L23.65 14.67L23.65 15.68L22.90 15.68L22.90 15.68Q22.43 15.68 22.13 15.37L22.13 15.37L22.13 15.37Q21.83 15.06 21.83 14.59L21.83 14.59ZM19.59 14.84L19.59 14.84L19.59 14.84Q20.08 14.84 20.49 14.66L20.49 14.66L20.49 14.66Q20.90 14.48 21.20 14.14L21.20 14.14L21.20 14.14Q21.49 13.80 21.66 13.33L21.66 13.33L21.66 13.33Q21.83 12.87 21.83 12.29L21.83 12.29L21.83 12.12L21.83 12.12Q21.83 11.56 21.66 11.09L21.66 11.09L21.66 11.09Q21.49 10.63 21.19 10.29L21.19 10.29L21.19 10.29Q20.89 9.95 20.48 9.77L20.48 9.77L20.48 9.77Q20.06 9.58 19.59 9.58L19.59 9.58L19.59 9.58Q19.10 9.58 18.69 9.76L18.69 9.76L18.69 9.76Q18.28 9.94 17.98 10.27L17.98 10.27L17.98 10.27Q17.68 10.60 17.51 11.07L17.51 11.07L17.51 11.07Q17.35 11.54 17.35 12.10L17.35 12.10L17.35 12.32L17.35 12.32Q17.35 13.51 17.97 14.17L17.97 14.17L17.97 14.17Q18.59 14.84 19.59 14.84ZM32.12 9.74L32.12 8.74L34.30 8.74L34.30 5.88L35.39 5.88L35.39 8.74L38.08 8.74L38.08 9.74L35.39 9.74L35.39 14.25L35.39 14.25Q35.39 14.67 35.77 14.67L35.77 14.67L37.74 14.67L37.74 15.68L35.38 15.68L35.38 15.68Q34.90 15.68 34.60 15.37L34.60 15.37L34.60 15.37Q34.30 15.06 34.30 14.59L34.30 14.59L34.30 9.74L32.12 9.74ZM54.32 12.54L48.72 12.54L48.72 12.54Q48.76 13.58 49.36 14.21L49.36 14.21L49.36 14.21Q49.97 14.84 51.04 14.84L51.04 14.84L51.04 14.84Q51.53 14.84 51.90 14.73L51.90 14.73L51.90 14.73Q52.26 14.62 52.52 14.42L52.52 14.42L52.52 14.42Q52.78 14.22 52.94 13.96L52.94 13.96L52.94 13.96Q53.10 13.71 53.20 13.41L53.20 13.41L54.24 13.69L54.24 13.69Q53.94 14.66 53.15 15.27L53.15 15.27L53.15 15.27Q52.36 15.88 51.02 15.88L51.02 15.88L51.02 15.88Q50.27 15.88 49.65 15.62L49.65 15.62L49.65 15.62Q49.03 15.36 48.58 14.88L48.58 14.88L48.58 14.88Q48.13 14.41 47.88 13.75L47.88 13.75L47.88 13.75Q47.63 13.09 47.63 12.29L47.63 12.29L47.63 11.96L47.63 11.96Q47.63 11.23 47.89 10.60L47.89 10.60L47.89 10.60Q48.15 9.97 48.61 9.51L48.61 9.51L48.61 9.51Q49.07 9.06 49.69 8.80L49.69 8.80L49.69 8.80Q50.32 8.54 51.04 8.54L51.04 8.54L51.04 8.54Q51.90 8.54 52.52 8.86L52.52 8.86L52.52 8.86Q53.14 9.17 53.54 9.63L53.54 9.63L53.54 9.63Q53.94 10.09 54.13 10.64L54.13 10.64L54.13 10.64Q54.32 11.19 54.32 11.65L54.32 11.65L54.32 12.54ZM51.04 9.58L51.04 9.58L51.04 9.58Q50.58 9.58 50.18 9.72L50.18 9.72L50.18 9.72Q49.78 9.87 49.48 10.14L49.48 10.14L49.48 10.14Q49.18 10.40 48.99 10.76L48.99 10.76L48.99 10.76Q48.80 11.12 48.75 11.54L48.75 11.54L53.23 11.54L53.23 11.54Q53.20 11.09 53.01 10.72L53.01 10.72L53.01 10.72Q52.82 10.36 52.52 10.11L52.52 10.11L52.52 10.11Q52.22 9.86 51.84 9.72L51.84 9.72L51.84 9.72Q51.45 9.58 51.04 9.58ZM68.53 17.05L68.53 14.42L68.36 14.42L68.36 14.42Q68.03 15.09 67.48 15.48L67.48 15.48L67.48 15.48Q66.93 15.88 66.09 15.88L66.09 15.88L66.09 15.88Q65.52 15.88 65.04 15.69L65.04 15.69L65.04 15.69Q64.55 15.50 64.21 15.12L64.21 15.12L64.21 15.12Q63.87 14.74 63.68 14.18L63.68 14.18L63.68 14.18Q63.49 13.62 63.49 12.88L63.49 12.88L63.49 8.74L64.58 8.74L64.58 12.74L64.58 12.74Q64.58 13.83 65.03 14.34L65.03 14.34L65.03 14.34Q65.48 14.84 66.40 14.84L66.40 14.84L66.40 14.84Q67.40 14.84 67.96 14.16L67.96 14.16L67.96 14.16Q68.53 13.48 68.53 12.35L68.53 12.35L68.53 8.74L69.62 8.74L69.62 17.39L69.62 17.39Q69.62 17.86 69.32 18.17L69.32 18.17L69.32 18.17Q69.02 18.48 68.54 18.48L68.54 18.48L64.58 18.48L64.58 17.47L68.15 17.47L68.15 17.47Q68.53 17.47 68.53 17.05L68.53 17.05ZM80.85 5.88L80.85 11.62L81.09 11.62L83.73 8.74L85.08 8.74L85.08 8.82L82.19 12.00L82.19 12.25L85.41 15.60L85.41 15.68L84.07 15.68L81.12 12.63L80.85 12.63L80.85 15.68L79.76 15.68L79.76 5.88L80.85 5.88ZM95.72 12.07L95.72 15.68L94.63 15.68L94.63 5.88L95.72 5.88L95.72 10.00L95.89 10.00L95.89 10.00Q96.21 9.32 96.79 8.93L96.79 8.93L96.79 8.93Q97.37 8.54 98.21 8.54L98.21 8.54L98.21 8.54Q99.34 8.54 100.05 9.29L100.05 9.29L100.05 9.29Q100.76 10.04 100.76 11.54L100.76 11.54L100.76 15.68L99.67 15.68L99.67 11.76L99.67 11.76Q99.67 10.67 99.18 10.12L99.18 10.12L99.18 10.12Q98.69 9.58 97.85 9.58L97.85 9.58L97.85 9.58Q96.85 9.58 96.28 10.25L96.28 10.25L96.28 10.25Q95.72 10.93 95.72 12.07L95.72 12.07ZM116.75 12.12L116.75 12.29L116.75 12.29Q116.75 13.16 116.46 13.82L116.46 13.82L116.46 13.82Q116.17 14.49 115.70 14.95L115.70 14.95L115.70 14.95Q115.22 15.40 114.58 15.64L114.58 15.64L114.58 15.64Q113.95 15.88 113.26 15.88L113.26 15.88L113.26 15.88Q112.56 15.88 111.93 15.64L111.93 15.64L111.93 15.64Q111.30 15.40 110.82 14.95L110.82 14.95L110.82 14.95Q110.35 14.49 110.06 13.82L110.06 13.82L110.06 13.82Q109.77 13.16 109.77 12.29L109.77 12.29L109.77 12.12L109.77 12.12Q109.77 11.27 110.06 10.61L110.06 10.61L110.06 10.61Q110.35 9.94 110.83 9.48L110.83 9.48L110.83 9.48Q111.31 9.02 111.94 8.78L111.94 8.78L111.94 8.78Q112.57 8.54 113.26 8.54L113.26 8.54L113.26 8.54Q113.95 8.54 114.58 8.78L114.58 8.78L114.58 8.78Q115.21 9.02 115.69 9.48L115.69 9.48L115.69 9.48Q116.17 9.94 116.46 10.61L116.46 10.61L116.46 10.61Q116.75 11.27 116.75 12.12L116.75 12.12ZM113.26 14.84L113.26 14.84L113.26 14.84Q113.76 14.84 114.19 14.66L114.19 14.66L114.19 14.66Q114.62 14.49 114.94 14.15L114.94 14.15L114.94 14.15Q115.26 13.82 115.44 13.35L115.44 13.35L115.44 13.35Q115.63 12.88 115.63 12.29L115.63 12.29L115.63 12.12L115.63 12.12Q115.63 11.56 115.44 11.09L115.44 11.09L115.44 11.09Q115.26 10.63 114.94 10.29L114.94 10.29L114.94 10.29Q114.62 9.95 114.18 9.77L114.18 9.77L114.18 9.77Q113.75 9.58 113.26 9.58L113.26 9.58L113.26 9.58Q112.77 9.58 112.34 9.77L112.34 9.77L112.34 9.77Q111.90 9.95 111.58 10.29L111.58 10.29L111.58 10.29Q111.26 10.63 111.08 11.09L111.08 11.09L111.08 11.09Q110.89 11.56 110.89 12.12L110.89 12.12L110.89 12.29L110.89 12.29Q110.89 12.88 111.08 13.35L111.08 13.35L111.08 13.35Q111.26 13.82 111.58 14.15L111.58 14.15L111.58 14.15Q111.90 14.49 112.33 14.66L112.33 14.66L112.33 14.66Q112.76 14.84 113.26 14.84ZM125.37 9.74L125.37 8.74L127.89 8.74L127.89 9.66L128.06 9.66L128.06 9.66Q128.32 9.09 128.81 8.81L128.81 8.81L128.81 8.81Q129.30 8.54 129.93 8.54L129.93 8.54L129.93 8.54Q130.98 8.54 131.63 9.23L131.63 9.23L131.63 9.23Q132.27 9.91 132.31 11.23L132.31 11.23L131.17 11.40L131.17 11.40Q131.17 10.43 130.70 10.00L130.70 10.00L130.70 10.00Q130.24 9.58 129.57 9.58L129.57 9.58L129.57 9.58Q129.14 9.58 128.82 9.74L128.82 9.74L128.82 9.74Q128.51 9.91 128.30 10.21L128.30 10.21L128.30 10.21Q128.09 10.50 127.99 10.89L127.99 10.89L127.99 10.89Q127.89 11.28 127.89 11.73L127.89 11.73L127.89 14.67L129.65 14.67L129.65 15.68L125.20 15.68L125.20 14.67L126.80 14.67L126.80 9.74L125.37 9.74ZM143.49 6.66L143.49 6.66L143.49 6.66Q143.49 6.26 143.77 5.97L143.77 5.97L143.77 5.97Q144.06 5.68 144.47 5.68L144.47 5.68L144.47 5.68Q144.87 5.68 145.16 5.97L145.16 5.97L145.16 5.97Q145.45 6.26 145.45 6.66L145.45 6.66L145.45 6.66Q145.45 7.07 145.16 7.36L145.16 7.36L145.16 7.36Q144.87 7.64 144.47 7.64L144.47 7.64L144.47 7.64Q144.06 7.64 143.77 7.36L143.77 7.36L143.77 7.36Q143.49 7.07 143.49 6.66ZM141.50 15.68L141.50 14.67L143.93 14.67L143.93 9.74L141.75 9.74L141.75 8.74L145.03 8.74L145.03 14.67L147.29 14.67L147.29 15.68L141.50 15.68ZM158.98 14.90L158.98 14.90L158.98 14.90Q158.98 14.49 159.27 14.20L159.27 14.20L159.27 14.20Q159.56 13.92 159.96 13.92L159.96 13.92L159.96 13.92Q160.37 13.92 160.66 14.20L160.66 14.20L160.66 14.20Q160.94 14.49 160.94 14.90L160.94 14.90L160.94 14.90Q160.94 15.30 160.66 15.59L160.66 15.59L160.66 15.59Q160.37 15.88 159.96 15.88L159.96 15.88L159.96 15.88Q159.56 15.88 159.27 15.59L159.27 15.59L159.27 15.59Q158.98 15.30 158.98 14.90ZM177.87 12.96L178.96 13.22L178.96 13.22Q178.85 13.79 178.58 14.28L178.58 14.28L178.58 14.28Q178.30 14.77 177.88 15.13L177.88 15.13L177.88 15.13Q177.46 15.48 176.90 15.68L176.90 15.68L176.90 15.68Q176.34 15.88 175.66 15.88L175.66 15.88L175.66 15.88Q174.93 15.88 174.28 15.64L174.28 15.64L174.28 15.64Q173.63 15.40 173.14 14.95L173.14 14.95L173.14 14.95Q172.65 14.49 172.36 13.83L172.36 13.83L172.36 13.83Q172.07 13.17 172.07 12.32L172.07 12.32L172.07 12.15L172.07 12.15Q172.07 11.31 172.36 10.64L172.36 10.64L172.36 10.64Q172.65 9.97 173.14 9.51L173.14 9.51L173.14 9.51Q173.63 9.04 174.28 8.79L174.28 8.79L174.28 8.79Q174.93 8.54 175.66 8.54L175.66 8.54L175.66 8.54Q176.32 8.54 176.88 8.74L176.88 8.74L176.88 8.74Q177.44 8.93 177.86 9.29L177.86 9.29L177.86 9.29Q178.29 9.65 178.56 10.14L178.56 10.14L178.56 10.14Q178.84 10.63 178.93 11.20L178.93 11.20L177.84 11.45L177.84 11.45Q177.80 11.09 177.64 10.74L177.64 10.74L177.64 10.74Q177.48 10.40 177.21 10.14L177.21 10.14L177.21 10.14Q176.93 9.88 176.54 9.73L176.54 9.73L176.54 9.73Q176.15 9.58 175.63 9.58L175.63 9.58L175.63 9.58Q175.13 9.58 174.69 9.77L174.69 9.77L174.69 9.77Q174.24 9.95 173.91 10.30L173.91 10.30L173.91 10.30Q173.57 10.64 173.38 11.12L173.38 11.12L173.38 11.12Q173.19 11.59 173.19 12.15L173.19 12.15L173.19 12.32L173.19 12.32Q173.19 12.91 173.38 13.38L173.38 13.38L173.38 13.38Q173.57 13.85 173.91 14.17L173.91 14.17L173.91 14.17Q174.24 14.49 174.69 14.66L174.69 14.66L174.69 14.66Q175.14 14.84 175.66 14.84L175.66 14.84L175.66 14.84Q176.18 14.84 176.56 14.68L176.56 14.68L176.56 14.68Q176.95 14.52 177.22 14.26L177.22 14.26L177.22 14.26Q177.49 14 177.65 13.66L177.65 13.66L177.65 13.66Q177.81 13.33 177.87 12.96L177.87 12.96ZM194.59 12.12L194.59 12.29L194.59 12.29Q194.59 13.16 194.30 13.82L194.30 13.82L194.30 13.82Q194.01 14.49 193.54 14.95L193.54 14.95L193.54 14.95Q193.06 15.40 192.42 15.64L192.42 15.64L192.42 15.64Q191.79 15.88 191.10 15.88L191.10 15.88L191.10 15.88Q190.40 15.88 189.77 15.64L189.77 15.64L189.77 15.64Q189.14 15.40 188.66 14.95L188.66 14.95L188.66 14.95Q188.19 14.49 187.90 13.82L187.90 13.82L187.90 13.82Q187.61 13.16 187.61 12.29L187.61 12.29L187.61 12.12L187.61 12.12Q187.61 11.27 187.90 10.61L187.90 10.61L187.90 10.61Q188.19 9.94 188.67 9.48L188.67 9.48L188.67 9.48Q189.15 9.02 189.78 8.78L189.78 8.78L189.78 8.78Q190.41 8.54 191.10 8.54L191.10 8.54L191.10 8.54Q191.79 8.54 192.42 8.78L192.42 8.78L192.42 8.78Q193.05 9.02 193.53 9.48L193.53 9.48L193.53 9.48Q194.01 9.94 194.30 10.61L194.30 10.61L194.30 10.61Q194.59 11.27 194.59 12.12L194.59 12.12ZM191.10 14.84L191.10 14.84L191.10 14.84Q191.60 14.84 192.03 14.66L192.03 14.66L192.03 14.66Q192.46 14.49 192.78 14.15L192.78 14.15L192.78 14.15Q193.10 13.82 193.28 13.35L193.28 13.35L193.28 13.35Q193.47 12.88 193.47 12.29L193.47 12.29L193.47 12.12L193.47 12.12Q193.47 11.56 193.28 11.09L193.28 11.09L193.28 11.09Q193.10 10.63 192.78 10.29L192.78 10.29L192.78 10.29Q192.46 9.95 192.02 9.77L192.02 9.77L192.02 9.77Q191.59 9.58 191.10 9.58L191.10 9.58L191.10 9.58Q190.61 9.58 190.18 9.77L190.18 9.77L190.18 9.77Q189.74 9.95 189.42 10.29L189.42 10.29L189.42 10.29Q189.10 10.63 188.92 11.09L188.92 11.09L188.92 11.09Q188.73 11.56 188.73 12.12L188.73 12.12L188.73 12.29L188.73 12.29Q188.73 12.88 188.92 13.35L188.92 13.35L188.92 13.35Q189.10 13.82 189.42 14.15L189.42 14.15L189.42 14.15Q189.74 14.49 190.17 14.66L190.17 14.66L190.17 14.66Q190.60 14.84 191.10 14.84ZM210.28 10.33L210.28 15.68L209.19 15.68L209.19 10.70L209.19 10.70Q209.19 10.21 208.96 9.89L208.96 9.89L208.96 9.89Q208.74 9.58 208.25 9.58L208.25 9.58L208.25 9.58Q207.79 9.58 207.50 9.92L207.50 9.92L207.50 9.92Q207.21 10.26 207.21 10.98L207.21 10.98L207.21 15.68L206.12 15.68L206.12 10.64L206.12 10.64Q206.12 10.18 205.87 9.88L205.87 9.88L205.87 9.88Q205.62 9.58 205.20 9.58L205.20 9.58L205.20 9.58Q204.69 9.58 204.42 9.94L204.42 9.94L204.42 9.94Q204.15 10.30 204.15 10.89L204.15 10.89L204.15 15.68L203.06 15.68L203.06 8.74L204.15 8.74L204.15 9.49L204.32 9.49L204.32 9.49Q204.50 9.00 204.85 8.77L204.85 8.77L204.85 8.77Q205.20 8.54 205.67 8.54L205.67 8.54L205.67 8.54Q206.18 8.54 206.51 8.81L206.51 8.81L206.51 8.81Q206.84 9.07 206.96 9.49L206.96 9.49L207.13 9.49L207.13 9.49Q207.61 8.54 208.64 8.54L208.64 8.54L208.64 8.54Q209.43 8.54 209.85 9.04L209.85 9.04L209.85 9.04Q210.28 9.53 210.28 10.33L210.28 10.33Z"></path></g></svg>